<svg id="svg" version="1.1" xmlns="http://www.w3.org/2000/svg" xmlns:xlink="http://www.w3.org/1999/xlink" width="400" height="400" viewBox="0, 0, 400,400"><g id="svgg"><path id="path0" d="M184.167 101.195 C 175.550 106.215,158.211 116.287,145.636 123.577 L 122.773 136.833 122.537 149.828 C 122.408 156.975,122.421 162.865,122.567 162.916 C 123.062 163.088,137.113 171.313,137.395 171.595 C 137.548 171.748,134.321 173.814,130.223 176.187 L 122.773 180.500 122.540 193.262 C 122.413 200.281,122.390 206.156,122.491 206.318 C 122.591 206.480,123.309 206.975,124.086 207.416 C 124.864 207.858,129.475 210.517,134.333 213.326 C 149.698 222.208,157.857 226.915,169.000 233.325 C 174.958 236.753,184.333 242.156,189.833 245.332 C 195.333 248.508,199.983 251.100,200.167 251.093 C 200.350 251.086,212.425 244.146,227.000 235.671 C 241.575 227.195,258.825 217.177,265.333 213.409 C 271.842 209.640,277.184 206.544,277.204 206.528 C 277.225 206.513,277.337 200.650,277.453 193.500 L 277.664 180.500 270.008 176.167 C 265.797 173.783,262.347 171.755,262.342 171.660 C 262.337 171.565,265.684 169.540,269.780 167.160 L 277.226 162.833 277.451 150.060 C 277.575 143.034,277.603 137.167,277.513 137.021 C 277.362 136.776,274.620 135.163,260.167 126.817 C 250.297 121.117,202.513 93.586,201.167 92.824 L 199.833 92.069 184.167 101.195 M207.580 122.715 C 217.292 128.324,230.536 135.978,239.667 141.259 C 243.608 143.539,248.592 146.401,250.741 147.619 C 252.890 148.837,254.651 149.908,254.656 150.000 C 254.662 150.144,240.717 158.319,239.981 158.603 C 239.833 158.660,230.819 153.573,219.948 147.298 C 209.078 141.023,200.030 135.897,199.842 135.906 C 199.654 135.915,190.800 140.986,180.167 147.173 C 169.533 153.361,160.683 158.423,160.500 158.421 C 160.223 158.418,150.178 152.720,146.401 150.423 C 145.023 149.585,142.660 151.121,167.333 136.820 C 178.975 130.072,190.900 123.155,193.833 121.449 C 196.767 119.742,199.353 118.343,199.580 118.340 C 199.808 118.336,203.408 120.305,207.580 122.715 M207.938 166.545 C 212.281 169.045,216.107 171.279,216.442 171.511 C 217.109 171.972,217.966 171.410,205.607 178.623 L 200.381 181.674 193.607 177.728 C 189.882 175.558,185.959 173.288,184.890 172.685 C 183.821 172.081,183.071 171.471,183.223 171.328 C 183.843 170.748,199.200 162.008,199.605 162.004 C 199.846 162.002,203.596 164.045,207.938 166.545 M170.608 190.616 C 180.006 196.084,185.439 199.231,196.131 205.399 L 200.095 207.686 219.798 196.221 L 239.500 184.756 241.032 185.628 C 251.488 191.580,254.605 193.527,254.233 193.875 C 254.013 194.081,241.811 201.240,227.116 209.784 L 200.399 225.317 182.950 215.225 C 173.352 209.674,160.965 202.518,155.423 199.322 C 147.674 194.853,145.441 193.422,145.757 193.127 C 146.143 192.766,160.040 184.667,160.273 184.667 C 160.333 184.667,164.984 187.344,170.608 190.616 M211.573 282.010 C 202.383 284.326,202.930 292.638,212.583 297.368 C 217.808 299.928,218.979 301.303,217.984 303.704 C 216.770 306.636,208.988 306.200,207.586 303.122 C 207.067 301.983,206.736 302.230,205.370 304.771 L 204.167 307.011 205.000 307.665 C 210.695 312.135,220.502 310.695,222.864 305.043 C 224.799 300.411,222.627 296.809,215.928 293.539 C 210.791 291.032,209.692 289.840,210.625 287.791 C 211.765 285.289,217.690 285.597,218.684 288.211 C 219.101 289.310,219.480 289.145,221.240 287.094 L 222.702 285.393 221.768 284.494 C 219.542 282.353,214.797 281.197,211.573 282.010 M175.453 283.083 C 175.559 283.679,176.331 289.417,177.168 295.833 C 179.205 311.454,178.738 309.667,180.788 309.667 L 182.501 309.667 184.304 301.917 C 185.296 297.654,186.199 294.058,186.311 293.926 C 186.423 293.793,187.337 297.243,188.341 301.593 L 190.167 309.500 191.891 309.600 L 193.615 309.700 193.850 307.817 C 193.979 306.781,194.783 300.587,195.637 294.050 L 197.189 282.167 195.223 282.066 C 192.677 281.937,192.944 281.208,192.156 290.439 L 191.469 298.500 189.878 291.833 C 189.003 288.167,188.227 284.979,188.154 284.750 C 188.075 284.501,187.439 284.333,186.577 284.333 L 185.134 284.333 183.502 291.324 C 182.605 295.169,181.827 298.272,181.774 298.218 C 181.684 298.129,180.000 283.035,180.000 282.320 C 180.000 282.144,178.933 282.000,177.630 282.000 L 175.259 282.000 175.453 283.083 M223.336 330.726 C 221.298 331.780,220.333 333.303,220.335 335.466 C 220.337 338.603,221.479 339.681,226.000 340.816 C 229.232 341.627,229.926 341.974,230.266 342.950 C 231.370 346.116,226.046 347.556,223.443 344.795 C 221.723 342.972,218.763 343.603,219.788 345.574 C 222.589 350.958,233.325 349.896,234.187 344.148 C 234.720 340.596,233.139 338.859,228.117 337.477 C 225.008 336.622,224.000 335.975,224.000 334.833 C 224.000 332.608,228.379 332.024,229.804 334.060 C 230.282 334.742,232.148 334.733,233.264 334.043 C 233.857 333.676,232.481 331.721,231.036 330.877 C 229.221 329.817,225.246 329.739,223.336 330.726 M253.629 330.500 C 252.700 331.005,252.160 332.068,251.810 334.083 C 251.618 335.189,251.481 335.333,250.630 335.333 C 249.751 335.333,249.667 335.436,249.667 336.500 C 249.667 337.574,249.746 337.667,250.667 337.667 L 251.667 337.667 251.667 343.167 L 251.667 348.667 253.333 348.667 L 255.000 348.667 255.000 343.167 L 255.000 337.667 256.500 337.667 C 257.992 337.667,258.000 337.660,258.000 336.500 C 258.000 335.340,257.992 335.333,256.500 335.333 C 255.074 335.333,255.000 335.287,255.000 334.385 C 255.000 333.224,255.916 332.333,257.110 332.333 C 257.905 332.333,258.000 332.209,258.000 331.167 L 258.000 330.000 256.250 330.013 C 255.287 330.021,254.108 330.240,253.629 330.500 M128.667 330.740 C 128.667 330.963,129.741 335.095,131.055 339.921 L 133.444 348.697 135.287 348.598 L 137.131 348.500 138.689 342.333 C 139.545 338.942,140.333 336.392,140.439 336.667 C 140.663 337.246,143.667 348.263,143.667 348.505 C 143.667 348.594,144.529 348.667,145.583 348.667 L 147.500 348.667 149.809 339.917 C 151.078 335.104,152.182 330.979,152.261 330.750 C 152.363 330.454,151.932 330.333,150.769 330.333 L 149.133 330.333 147.503 336.725 C 146.606 340.240,145.808 342.924,145.730 342.689 C 145.651 342.454,144.880 339.616,144.016 336.381 L 142.444 330.500 140.591 330.401 L 138.739 330.302 137.349 336.068 C 136.584 339.239,135.877 342.058,135.777 342.333 C 135.592 342.842,135.229 341.673,133.321 334.417 L 132.248 330.333 130.457 330.333 C 129.271 330.333,128.667 330.471,128.667 330.740 M176.667 339.500 L 176.667 348.667 178.333 348.667 L 180.000 348.667 180.000 346.820 C 180.000 345.089,182.125 341.647,182.769 342.335 C 182.854 342.426,183.617 343.887,184.465 345.583 L 186.007 348.667 187.670 348.667 C 189.698 348.667,189.736 349.029,187.189 344.000 L 185.078 339.834 187.074 337.584 L 189.069 335.333 187.307 335.333 L 185.546 335.333 182.789 338.250 L 180.033 341.167 180.016 335.750 L 180.000 330.333 178.333 330.333 L 176.667 330.333 176.667 339.500 M156.334 335.374 C 153.582 336.472,151.955 340.204,152.705 343.701 C 154.558 352.342,166.133 349.921,165.227 341.081 C 164.752 336.444,160.498 333.714,156.334 335.374 M171.800 336.133 L 170.667 337.267 170.667 336.300 C 170.667 335.377,170.600 335.333,169.167 335.333 L 167.667 335.333 167.667 342.000 L 167.667 348.667 169.305 348.667 L 170.944 348.667 171.055 344.690 C 171.184 340.109,171.645 339.066,173.782 338.525 C 174.973 338.223,175.000 338.180,175.000 336.608 C 175.000 334.495,173.640 334.293,171.800 336.133 M194.000 335.357 C 189.324 337.319,188.812 345.632,193.208 348.208 C 196.245 349.988,200.683 348.858,202.093 345.947 C 203.000 344.076,200.401 343.510,199.083 345.292 C 197.288 347.721,193.667 346.311,193.667 343.183 L 193.667 342.333 198.363 342.333 L 203.059 342.333 202.829 340.917 C 202.070 336.220,198.020 333.670,194.000 335.357 M209.467 336.133 L 208.333 337.267 208.333 336.300 C 208.333 335.377,208.266 335.333,206.833 335.333 L 205.333 335.333 205.333 342.000 L 205.333 348.667 206.972 348.667 L 208.611 348.667 208.722 344.690 C 208.850 340.109,209.311 339.066,211.449 338.525 C 212.639 338.223,212.667 338.180,212.667 336.608 C 212.667 334.495,211.307 334.293,209.467 336.133 M238.753 335.656 C 237.076 336.418,235.811 338.466,236.679 339.015 C 237.508 339.539,239.333 339.402,239.333 338.816 C 239.333 337.333,243.504 337.013,244.490 338.421 C 245.556 339.942,245.231 340.225,242.198 340.414 C 236.864 340.747,234.166 344.037,236.570 347.276 C 238.340 349.661,243.617 349.532,244.585 347.081 C 244.765 346.627,244.854 346.718,244.993 347.500 C 245.156 348.418,245.293 348.508,246.679 348.599 L 248.188 348.697 248.056 343.099 C 247.984 340.019,247.782 337.229,247.608 336.899 C 246.598 334.985,241.736 334.302,238.753 335.656 M262.667 335.357 C 257.991 337.319,257.479 345.632,261.875 348.208 C 264.911 349.988,269.350 348.858,270.760 345.947 C 271.666 344.076,269.067 343.510,267.750 345.292 C 265.954 347.721,262.333 346.311,262.333 343.183 L 262.333 342.333 267.029 342.333 L 271.725 342.333 271.496 340.917 C 270.737 336.220,266.687 333.670,262.667 335.357 M160.018 337.677 C 161.690 338.571,162.301 343.122,161.030 345.206 C 159.283 348.071,156.000 345.990,156.000 342.017 C 156.000 338.753,157.998 336.595,160.018 337.677 M198.583 338.531 C 199.953 340.064,199.642 340.333,196.500 340.333 C 193.453 340.333,193.196 340.153,194.202 338.717 C 195.306 337.141,197.267 337.058,198.583 338.531 M267.250 338.531 C 268.620 340.064,268.309 340.333,265.167 340.333 C 262.119 340.333,261.863 340.153,262.869 338.717 C 263.973 337.141,265.933 337.058,267.250 338.531 M212.333 341.667 L 212.333 343.000 215.833 343.000 L 219.333 343.000 219.333 341.667 L 219.333 340.333 215.833 340.333 L 212.333 340.333 212.333 341.667 M244.998 342.417 C 244.985 345.442,242.142 347.596,240.074 346.148 C 239.016 345.407,239.079 343.849,240.195 343.117 C 241.622 342.183,245.001 341.690,244.998 342.417 " stroke="none" fill="#6cc484" fill-rule="evenodd"></path><path id="path1" d="" stroke="none" fill="#70c484" fill-rule="evenodd"></path><path id="path2" d="" stroke="none" fill="#70c484" fill-rule="evenodd"></path><path id="path3" d="" stroke="none" fill="#70c484" fill-rule="evenodd"></path><path id="path4" d="" stroke="none" fill="#70c484" fill-rule="evenodd"></path></g></svg>